<svg version="1.0" viewBox="0 0 633 633">
    <linearGradient x1="-666.45" x2="-666.45" y1="163.28" y2="163.99" gradientTransform="matrix(633 0 0 633 422177 -103358)" gradientUnits="userSpaceOnUse" id="a-cl-1">
        <stop stop-color="#6BDAFF" offset="0"></stop>
        <stop stop-color="#F9FFB5" offset=".32"></stop>
        <stop stop-color="#FFA770" offset=".71"></stop>
        <stop stop-color="#FF7373" offset="1"></stop>
    </linearGradient>
    <circle cx="316.5" cy="316.5" r="316.5" fill="url(#a-cl-1)"></circle>
    <defs>
        <filter x="-137.5" y="412" width="454" height="396.9" filterUnits="userSpaceOnUse" id="am-cl-1">
            <feColorMatrix values="1 0 0 0 0  0 1 0 0 0  0 0 1 0 0  0 0 0 1 0"></feColorMatrix>
        </filter>
    </defs>
    <mask x="-137.5" y="412" width="454" height="396.9" maskUnits="userSpaceOnUse" id="b-cl-1">
        <g filter="url(#am-cl-1)">
            <circle cx="316.5" cy="316.5" r="316.5" fill="#fff"></circle>
        </g>
    </mask>
    <g mask="url(#b-cl-1)">
        <ellipse cx="89.5" cy="610.5" rx="214.5" ry="186" fill="#015064" stroke="#00CFE2" stroke-width="25"></ellipse>
    </g>
    <defs>
        <filter x="316.5" y="412" width="454" height="396.9" filterUnits="userSpaceOnUse" id="ah-cl-1">
            <feColorMatrix values="1 0 0 0 0  0 1 0 0 0  0 0 1 0 0  0 0 0 1 0"></feColorMatrix>
        </filter>
    </defs>
    <mask x="316.5" y="412" width="454" height="396.9" maskUnits="userSpaceOnUse" id="k-cl-1">
        <g filter="url(#ah-cl-1)">
            <circle cx="316.5" cy="316.5" r="316.5" fill="#fff"></circle>
        </g>
    </mask>
    <g mask="url(#k-cl-1)">
        <ellipse cx="543.5" cy="610.5" rx="214.5" ry="186" fill="#015064" stroke="#00CFE2" stroke-width="25"></ellipse>
    </g>
    <defs>
        <filter x="-137.5" y="450" width="454" height="396.9" filterUnits="userSpaceOnUse" id="ae-cl-1">
            <feColorMatrix values="1 0 0 0 0  0 1 0 0 0  0 0 1 0 0  0 0 0 1 0"></feColorMatrix>
        </filter>
    </defs>
    <mask x="-137.5" y="450" width="454" height="396.9" maskUnits="userSpaceOnUse" id="j-cl-1">
        <g filter="url(#ae-cl-1)">
            <circle cx="316.5" cy="316.5" r="316.5" fill="#fff"></circle>
        </g>
    </mask>
    <g mask="url(#j-cl-1)">
        <ellipse cx="89.5" cy="648.5" rx="214.5" ry="186" fill="#015064" stroke="#00A8B8" stroke-width="25"></ellipse>
    </g>
    <defs>
        <filter x="316.5" y="450" width="454" height="396.9" filterUnits="userSpaceOnUse" id="ai-cl-1">
            <feColorMatrix values="1 0 0 0 0  0 1 0 0 0  0 0 1 0 0  0 0 0 1 0"></feColorMatrix>
        </filter>
    </defs>
    <mask x="316.5" y="450" width="454" height="396.9" maskUnits="userSpaceOnUse" id="i-cl-1">
        <g filter="url(#ai-cl-1)">
            <circle cx="316.5" cy="316.5" r="316.5" fill="#fff"></circle>
        </g>
    </mask>
    <g mask="url(#i-cl-1)">
        <ellipse cx="543.5" cy="648.5" rx="214.5" ry="186" fill="#015064" stroke="#00A8B8" stroke-width="25"></ellipse>
    </g>
    <defs>
        <filter x="-137.5" y="486" width="454" height="396.9" filterUnits="userSpaceOnUse" id="aj-cl-1">
            <feColorMatrix values="1 0 0 0 0  0 1 0 0 0  0 0 1 0 0  0 0 0 1 0"></feColorMatrix>
        </filter>
    </defs>
    <mask x="-137.5" y="486" width="454" height="396.9" maskUnits="userSpaceOnUse" id="h-cl-1">
        <g filter="url(#aj-cl-1)">
            <circle cx="316.5" cy="316.5" r="316.5" fill="#fff"></circle>
        </g>
    </mask>
    <g mask="url(#h-cl-1)">
        <ellipse cx="89.5" cy="684.5" rx="214.5" ry="186" fill="#015064" stroke="#007782" stroke-width="25"></ellipse>
    </g>
    <defs>
        <filter x="316.5" y="486" width="454" height="396.9" filterUnits="userSpaceOnUse" id="ag-cl-1">
            <feColorMatrix values="1 0 0 0 0  0 1 0 0 0  0 0 1 0 0  0 0 0 1 0"></feColorMatrix>
        </filter>
    </defs>
    <mask x="316.5" y="486" width="454" height="396.9" maskUnits="userSpaceOnUse" id="g-cl-1">
        <g filter="url(#ag-cl-1)">
            <circle cx="316.5" cy="316.5" r="316.5" fill="#fff"></circle>
        </g>
    </mask>
    <g mask="url(#g-cl-1)">
        <ellipse cx="543.5" cy="684.5" rx="214.5" ry="186" fill="#015064" stroke="#007782" stroke-width="25"></ellipse>
    </g>
    <defs>
        <filter x="272.2" y="308" width="176.9" height="129.3" filterUnits="userSpaceOnUse" id="af-cl-1">
            <feColorMatrix values="1 0 0 0 0  0 1 0 0 0  0 0 1 0 0  0 0 0 1 0"></feColorMatrix>
        </filter>
    </defs>
    <mask x="272.2" y="308" width="176.9" height="129.3" maskUnits="userSpaceOnUse" id="f-cl-1">
        <g filter="url(#af-cl-1)">
            <circle cx="316.5" cy="316.5" r="316.5" fill="#fff"></circle>
        </g>
    </mask>
    <g mask="url(#f-cl-1)">
        <line x1="436" x2="431" y1="403.2" y2="431.8" fill="none" stroke="#000" stroke-linecap="round" stroke-linejoin="bevel" stroke-width="11"></line>
        <line x1="291" x2="280" y1="341.5" y2="403.5" fill="none" stroke="#000" stroke-linecap="round" stroke-linejoin="bevel" stroke-width="11"></line>
        <line x1="332.9" x2="328.6" y1="384.1" y2="411.2" fill="none" stroke="#000" stroke-linecap="round" stroke-linejoin="bevel" stroke-width="11"></line>
        <linearGradient x1="-670.75" x2="-671.59" y1="164.4" y2="164.49" gradientTransform="matrix(-184.16 -32.472 -11.461 64.997 -121359 -32126)" gradientUnits="userSpaceOnUse" id="m-cl-1">
            <stop stop-color="#EE2700" offset="0"></stop>
            <stop stop-color="#FF008E" offset="1"></stop>
        </linearGradient>
        <path d="m344.1 363 97.7 17.2c5.8 2.1 8.2 6.1 7.1 12.1s-4.7 9.2-11 9.9l-106-18.7-57.5-59.2c-3.2-4.8-2.9-9.1 0.8-12.8s8.3-4.4 13.7-2.1l55.2 53.6z" clip-rule="evenodd" fill-rule="evenodd" fill="url(#m-cl-1)"></path>
        <line x1="428.2" x2="429.1" y1="384.5" y2="378" fill="none" stroke="#fff" stroke-linecap="round" stroke-linejoin="bevel" stroke-width="7"></line>
        <line x1="395.2" x2="396.1" y1="379.5" y2="373" fill="none" stroke="#fff" stroke-linecap="round" stroke-linejoin="bevel" stroke-width="7"></line>
        <line x1="362.2" x2="363.1" y1="373.5" y2="367.4" fill="none" stroke="#fff" stroke-linecap="round" stroke-linejoin="bevel" stroke-width="7"></line>
        <line x1="324.2" x2="328.4" y1="351.3" y2="347.4" fill="none" stroke="#fff" stroke-linecap="round" stroke-linejoin="bevel" stroke-width="7"></line>
        <line x1="303.2" x2="307.4" y1="331.3" y2="327.4" fill="none" stroke="#fff" stroke-linecap="round" stroke-linejoin="bevel" stroke-width="7"></line>
    </g>
    <defs>
        <filter x="73.2" y="113.8" width="280.6" height="317.4" filterUnits="userSpaceOnUse" id="ak-cl-1">
            <feColorMatrix values="1 0 0 0 0  0 1 0 0 0  0 0 1 0 0  0 0 0 1 0"></feColorMatrix>
        </filter>
    </defs>
    <mask x="73.2" y="113.8" width="280.6" height="317.4" maskUnits="userSpaceOnUse" id="e-cl-1">
        <g filter="url(#ak-cl-1)">
            <circle cx="316.5" cy="316.5" r="316.5" fill="#fff"></circle>
        </g>
    </mask>
    <g mask="url(#e-cl-1)">
        <linearGradient x1="-672.16" x2="-672.16" y1="165.03" y2="166.03" gradientTransform="matrix(-100.18 48.861 97.976 200.88 -83342 -93.059)" gradientUnits="userSpaceOnUse" id="n-cl-1">
            <stop stop-color="#A17500" offset="0"></stop>
            <stop stop-color="#5D2100" offset="1"></stop>
        </linearGradient>
        <path d="m192.3 203c8.1 37.3 14 73.6 17.8 109.1 3.8 35.4 2.8 75.1-3 119.2l61.2-16.7c-15.6-59-25.2-97.9-28.6-116.6s-10.8-51.9-22.1-99.6l-25.3 4.6" clip-rule="evenodd" fill-rule="evenodd" fill="url(#n-cl-1)"></path>
        <g stroke="#2F8A00">
            <linearGradient x1="-660.23" x2="-660.23" y1="166.72" y2="167.72" gradientTransform="matrix(92.683 4.8573 -2.0259 38.657 61680 -3088.6)" gradientUnits="userSpaceOnUse" id="r-cl-1">
                <stop stop-color="#2F8A00" offset="0"></stop>
                <stop stop-color="#90FF57" offset="1"></stop>
            </linearGradient>
            <path d="m195 183.9s-12.6-22.1-36.5-29.9c-15.9-5.2-34.4-1.5-55.5 11.1 15.9 14.3 29.5 22.6 40.7 24.9 16.8 3.6 51.3-6.1 51.3-6.1z" clip-rule="evenodd" fill-rule="evenodd" stroke-width="13" fill="url(#r-cl-1)"></path>
            <linearGradient x1="-661.36" x2="-661.36" y1="164.18" y2="165.18" gradientTransform="matrix(110 5.7648 -6.3599 121.35 73933 -15933)" gradientUnits="userSpaceOnUse" id="s-cl-1">
                <stop stop-color="#2F8A00" offset="0"></stop>
                <stop stop-color="#90FF57" offset="1"></stop>
            </linearGradient>
            <path d="m194.9 184.5s-47.5-8.5-83.2 15.7c-23.8 16.2-34.3 49.3-31.6 99.4 30.3-27.8 52.1-48.5 65.2-61.9 19.8-20.2 49.6-53.2 49.6-53.2z" clip-rule="evenodd" fill-rule="evenodd" stroke-width="13" fill="url(#s-cl-1)"></path>
            <linearGradient x1="-656.79" x2="-656.79" y1="165.15" y2="166.15" gradientTransform="matrix(62.954 3.2993 -3.5023 66.828 42156 -8754.1)" gradientUnits="userSpaceOnUse" id="q-cl-1">
                <stop stop-color="#2F8A00" offset="0"></stop>
                <stop stop-color="#90FF57" offset="1"></stop>
            </linearGradient>
            <path d="m195 183.9c-0.8-21.9 6-38 20.6-48.2s29.8-15.4 45.5-15.3c-6.1 21.4-14.5 35.8-25.2 43.4s-24.4 14.2-40.9 20.1z" clip-rule="evenodd" fill-rule="evenodd" stroke-width="13" fill="url(#q-cl-1)"></path>
            <linearGradient x1="-663.07" x2="-663.07" y1="165.44" y2="166.44" gradientTransform="matrix(152.47 7.9907 -3.0936 59.029 101884 -4318.7)" gradientUnits="userSpaceOnUse" id="p-cl-1">
                <stop stop-color="#2F8A00" offset="0"></stop>
                <stop stop-color="#90FF57" offset="1"></stop>
            </linearGradient>
            <path d="m194.9 184.5c31.9-30 64.1-39.7 96.7-29s50.8 30.4 54.6 59.1c-35.2-5.5-60.4-9.6-75.8-12.1-15.3-2.6-40.5-8.6-75.5-18z" clip-rule="evenodd" fill-rule="evenodd" stroke-width="13" fill="url(#p-cl-1)"></path>
            <linearGradient x1="-662.57" x2="-662.57" y1="164.44" y2="165.44" gradientTransform="matrix(136.46 7.1517 -5.2163 99.533 91536 -11442)" gradientUnits="userSpaceOnUse" id="o-cl-1">
                <stop stop-color="#2F8A00" offset="0"></stop>
                <stop stop-color="#90FF57" offset="1"></stop>
            </linearGradient>
            <path d="m194.9 184.5c35.8-7.6 65.6-0.2 89.2 22s37.7 49 42.3 80.3c-39.8-9.7-68.3-23.8-85.5-42.4s-32.5-38.5-46-59.9z" clip-rule="evenodd" fill-rule="evenodd" stroke-width="13" fill="url(#o-cl-1)"></path>
            <linearGradient x1="-656.43" x2="-656.43" y1="163.86" y2="164.86" gradientTransform="matrix(60.866 3.1899 -8.7773 167.48 41560 -25168)" gradientUnits="userSpaceOnUse" id="l-cl-1">
                <stop stop-color="#2F8A00" offset="0"></stop>
                <stop stop-color="#90FF57" offset="1"></stop>
            </linearGradient>
            <path d="m194.9 184.5c-33.6 13.8-53.6 35.7-60.1 65.6s-3.6 63.1 8.7 99.6c27.4-40.3 43.2-69.6 47.4-88s5.6-44.1 4-77.2z" clip-rule="evenodd" fill-rule="evenodd" stroke-width="13" fill="url(#l-cl-1)"></path>
            <path d="m196.5 182.3c-14.8 21.6-25.1 41.4-30.8 59.4s-9.5 33-11.1 45.1" fill="none" stroke-linecap="round" stroke-width="8"></path>
            <path d="m194.9 185.7c-24.4 1.7-43.8 9-58.1 21.8s-24.7 25.4-31.3 37.8" fill="none" stroke-linecap="round" stroke-width="8"></path>
            <path d="m204.5 176.4c29.7-6.7 52-8.4 67-5.1s26.9 8.6 35.8 15.9" fill="none" stroke-linecap="round" stroke-width="8"></path>
            <path d="m196.5 181.4c20.3 9.9 38.2 20.5 53.9 31.9s27.4 22.1 35.1 32" fill="none" stroke-linecap="round" stroke-width="8"></path>
        </g>
    </g>
    <defs>
        <filter x="50.5" y="399" width="532" height="633" filterUnits="userSpaceOnUse" id="al-cl-1">
            <feColorMatrix values="1 0 0 0 0  0 1 0 0 0  0 0 1 0 0  0 0 0 1 0"></feColorMatrix>
        </filter>
    </defs>
    <mask x="50.5" y="399" width="532" height="633" maskUnits="userSpaceOnUse" id="d-cl-1">
        <g filter="url(#al-cl-1)">
            <circle cx="316.5" cy="316.5" r="316.5" fill="#fff"></circle>
        </g>
    </mask>
    <g mask="url(#d-cl-1)">
        <linearGradient x1="-666.06" x2="-666.23" y1="163.36" y2="163.75" gradientTransform="matrix(532 0 0 633 354760 -102959)" gradientUnits="userSpaceOnUse" id="u-cl-1">
            <stop stop-color="#FFF400" offset="0"></stop>
            <stop stop-color="#3C8700" offset="1"></stop>
        </linearGradient>
        <ellipse cx="316.5" cy="715.5" rx="266" ry="316.5" fill="url(#u-cl-1)"></ellipse>
    </g>
    <defs>
        <filter x="391" y="-24" width="288" height="283" filterUnits="userSpaceOnUse" id="ad-cl-1">
            <feColorMatrix values="1 0 0 0 0  0 1 0 0 0  0 0 1 0 0  0 0 0 1 0"></feColorMatrix>
        </filter>
    </defs>
    <mask x="391" y="-24" width="288" height="283" maskUnits="userSpaceOnUse" id="c-cl-1">
        <g filter="url(#ad-cl-1)">
            <circle cx="316.5" cy="316.5" r="316.5" fill="#fff"></circle>
        </g>
    </mask>
    <g mask="url(#c-cl-1)">
        <linearGradient x1="-664.56" x2="-664.56" y1="163.79" y2="164.79" gradientTransform="matrix(227 0 0 227 151421 -37204)" gradientUnits="userSpaceOnUse" id="t-cl-1">
            <stop stop-color="#FFDF00" offset="0"></stop>
            <stop stop-color="#FF9D00" offset="1"></stop>
        </linearGradient>
        <circle cx="565.5" cy="89.5" r="113.5" fill="url(#t-cl-1)"></circle>
        <linearGradient x1="-644.5" x2="-645.77" y1="342" y2="342" gradientTransform="matrix(30 0 0 1 19770 -253)" gradientUnits="userSpaceOnUse" id="v-cl-1">
            <stop stop-color="#FFA400" offset="0"></stop>
            <stop stop-color="#FF5E00" offset="1"></stop>
        </linearGradient>
        <line x1="427" x2="397" y1="89" y2="89" fill="none" stroke-linecap="round" stroke-linejoin="bevel" stroke-width="12" stroke="url(#v-cl-1)"></line>
        <linearGradient x1="-641.56" x2="-642.83" y1="196.02" y2="196.07" gradientTransform="matrix(26.5 0 0 5.5 17439 -1025.5)" gradientUnits="userSpaceOnUse" id="aa-cl-1">
            <stop stop-color="#FFA400" offset="0"></stop>
            <stop stop-color="#FF5E00" offset="1"></stop>
        </linearGradient>
        <line x1="430.5" x2="404" y1="55.5" y2="50" fill="none" stroke-linecap="round" stroke-linejoin="bevel" stroke-width="12" stroke="url(#aa-cl-1)"></line>
        <linearGradient x1="-643.73" x2="-645" y1="185.83" y2="185.9" gradientTransform="matrix(29 0 0 8 19107 -1361)" gradientUnits="userSpaceOnUse" id="w-cl-1">
            <stop stop-color="#FFA400" offset="0"></stop>
            <stop stop-color="#FF5E00" offset="1"></stop>
        </linearGradient>
        <line x1="431" x2="402" y1="122" y2="130" fill="none" stroke-linecap="round" stroke-linejoin="bevel" stroke-width="12" stroke="url(#w-cl-1)"></line>
        <linearGradient x1="-638.94" x2="-640.22" y1="177.09" y2="177.39" gradientTransform="matrix(24 0 0 13 15783 -2145)" gradientUnits="userSpaceOnUse" id="ac-cl-1">
            <stop stop-color="#FFA400" offset="0"></stop>
            <stop stop-color="#FF5E00" offset="1"></stop>
        </linearGradient>
        <line x1="442" x2="418" y1="153" y2="166" fill="none" stroke-linecap="round" stroke-linejoin="bevel" stroke-width="12" stroke="url(#ac-cl-1)"></line>
        <linearGradient x1="-633.42" x2="-634.7" y1="172.41" y2="173.31" gradientTransform="matrix(20 0 0 19 13137 -3096)" gradientUnits="userSpaceOnUse" id="ab-cl-1">
            <stop stop-color="#FFA400" offset="0"></stop>
            <stop stop-color="#FF5E00" offset="1"></stop>
        </linearGradient>
        <line x1="464" x2="444" y1="180" y2="199" fill="none" stroke-linecap="round" stroke-linejoin="bevel" stroke-width="12" stroke="url(#ab-cl-1)"></line>
        <linearGradient x1="-619.05" x2="-619.52" y1="170.82" y2="171.82" gradientTransform="matrix(13.83 0 0 22.85 9050 -3703.4)" gradientUnits="userSpaceOnUse" id="y-cl-1">
            <stop stop-color="#FFA400" offset="0"></stop>
            <stop stop-color="#FF5E00" offset="1"></stop>
        </linearGradient>
        <line x1="491.4" x2="477.5" y1="203" y2="225.9" fill="none" stroke-linecap="round" stroke-linejoin="bevel" stroke-width="12" stroke="url(#y-cl-1)"></line>
        <linearGradient x1="-578.5" x2="-578.63" y1="170.31" y2="171.31" gradientTransform="matrix(7.5 0 0 24.5 4860 -3953)" gradientUnits="userSpaceOnUse" id="x-cl-1">
            <stop stop-color="#FFA400" offset="0"></stop>
            <stop stop-color="#FF5E00" offset="1"></stop>
        </linearGradient>
        <line x1="524.5" x2="517" y1="219.5" y2="244" fill="none" stroke-linecap="round" stroke-linejoin="bevel" stroke-width="12" stroke="url(#x-cl-1)"></line>
        <linearGradient x1="666.5" x2="666.5" y1="170.31" y2="171.31" gradientTransform="matrix(.5 0 0 24.5 231.5 -3944)" gradientUnits="userSpaceOnUse" id="z-cl-1">
            <stop stop-color="#FFA400" offset="0"></stop>
            <stop stop-color="#FF5E00" offset="1"></stop>
        </linearGradient>
        <line x1="564.5" x2="565" y1="228.5" y2="253" fill="none" stroke-linecap="round" stroke-linejoin="bevel" stroke-width="12" stroke="url(#z-cl-1)"></line>
    </g>
</svg>